# xmcd
#
# Track frame offsets:
#	150
#	11340
#	22605
#	36637
#	45545
#	72840
#	92627
#	103352
#	118160
#	131982
#	154807
#	173920
#	196930
#	213850
#
# Disc length: 3055 seconds
# Revision: 2
# Processed by: cddbd v1.5.2PL0 Copyright (c) Steve Scherf et al.
# Submitted via: dBpowerAMP V12.0
#
DISCID=be0bed0e
DTITLE=Michael Koehlmeier and Reinhold Bilgeri - Owie Lacht
DYEAR=1973
DGENRE=Blues
TTITLE0=Strumpfbandg? Rtelblues
TTITLE1=Z'Breagaz Am Bahnhof
TTITLE2=W? Rescht Doch Abghaut
TTITLE3=Kaiser Vom Alpenland
TTITLE4=Im K? Nschtlercafe
TTITLE5=Sus W? R I Sealbr Dra
TTITLE6=Dort, Wo Die Birken Stehn
TTITLE7=Frankfurt-Song
TTITLE8=Was W? Re Wohl, Was W? R
TTITLE9=Am Sunntag Id'diskothek
TTITLE10=Gschichta Us da Wohnbl? Ck
TTITLE11=H? Tt I a Kl? Meh Geald
TTITLE12=Oho Vorarlberg (Anplaggd)
TTITLE13=Oho Vorarlberg (Original)
EXTD=
EXTT0=
EXTT1=
EXTT2=
EXTT3=
EXTT4=
EXTT5=
EXTT6=
EXTT7=
EXTT8=
EXTT9=
EXTT10=
EXTT11=
EXTT12=
EXTT13=
PLAYORDER=
